<svg viewBox="0 0 100 23" xmlns="http://www.w3.org/2000/svg" fill-rule="evenodd" clip-rule="evenodd" stroke-linejoin="round" stroke-miterlimit="1.414"><path fill="none" d="M0 192.5h500v115H0v-115z"/><path fill="#121212" d="M93.605 22.42c2.065 0 3.266-.834 3.793-1.845l.102 1.552h2.446v-5.989h-5.872v2.153h2.767v.132c-.043.82-.995 1.61-2.372 1.61-1.669 0-2.562-1.127-2.562-3.06 0-1.962.893-3.134 2.533-3.134 1.142 0 1.816.572 2.065 1.524l3.485-.63c-.498-2.08-2.592-3.294-5.521-3.294-3.719 0-6.046 2.298-6.046 5.579 0 3.249 1.932 5.402 5.182 5.402m-11.134-3.924H80.89v3.631h-3.339V11.731h5.931c3.001 0 4.261 1.391 4.261 3.338 0 1.245-.63 2.417-2.021 2.973l2.298 4.085h-3.63l-1.919-3.631zm-1.581-2.094h1.816c1.054 0 1.522-.498 1.522-1.274 0-.746-.453-1.2-1.522-1.2H80.89v2.474zm-10.314 3.397v-1.845h5.3v-2.211h-5.3v-1.684h5.549v-2.327h-8.888v10.395h8.99v-2.328h-5.651zm-4.442-.659c0 1.67-1.215 2.987-3.777 2.987h-6.663V11.732h6.575c2.357 0 3.616.98 3.616 2.606 0 1.112-.688 2.005-2.035 2.313 1.479.22 2.284 1.113 2.284 2.489m-7.101-5.242v1.933H61.2c.776 0 1.157-.41 1.157-.995 0-.572-.381-.938-1.157-.938h-2.167zm3.572 4.964c0-.644-.468-1.039-1.273-1.039h-2.299v2.137h2.299c.849 0 1.273-.468 1.273-1.098m-17.71 1.083v2.182h9.782v-2.372h-5.623l5.388-5.842v-2.181H45.1v2.386h5.213l-5.418 5.827zm-11.38-8.213v6.354c0 2.665 1.948 4.334 5.316 4.334 3.353 0 5.3-1.669 5.3-4.319v-6.369h-3.338v6.105c0 1.215-.747 1.962-1.962 1.962-1.274 0-1.962-.747-1.962-1.962v-6.105h-3.354zm-6.741 8.067v-1.845h5.3v-2.211h-5.3v-1.684h5.549v-2.327h-8.888v10.395h8.991v-2.328h-5.652zm-9.919-1.303h-1.581v3.631h-3.339V11.731h5.93c3.002 0 4.261 1.391 4.261 3.338 0 1.245-.629 2.417-2.021 2.973l2.299 4.085h-3.631l-1.918-3.631zm-1.581-2.094h1.815c1.055 0 1.523-.498 1.523-1.274 0-.746-.454-1.2-1.523-1.2h-1.815v2.474zm-8.017-4.671l-3.733 4.07v-4.07H.185v10.396h3.339v-2.694l1.317-1.376 2.621 4.07h3.793l-4.056-6.179 3.924-4.217H7.257zM64.531.08L62.7 10.476h8.991l.41-2.328h-5.652l.337-1.845h5.3l.381-2.211h-5.3l.307-1.684h5.549L73.419.08h-8.888zM50.985 10.476h3.06V4.194h.044c.146.352.498.894.718 1.289l3.572 4.993h3.368V.08h-3.06v6.267h-.044c-.176-.396-.469-.894-.733-1.318L54.528.08h-3.543v10.396zm-5.014 0h3.338V.08h-3.338v10.396zm-1.115-2.987c0 1.669-1.215 2.987-3.778 2.987h-6.662V.08h6.575c2.357 0 3.616.981 3.616 2.606 0 1.113-.688 2.006-2.035 2.314 1.479.219 2.284 1.112 2.284 2.489m-7.101-5.242V4.18h2.167c.775 0 1.156-.41 1.156-.996 0-.571-.381-.937-1.156-.937h-2.167zm3.572 4.964c0-.645-.468-1.04-1.273-1.04h-2.299v2.138h2.299c.849 0 1.273-.469 1.273-1.098m-13.456-.366h-1.582v3.631h-3.338V.08h5.93c3.002 0 4.261 1.391 4.261 3.338 0 1.245-.63 2.416-2.021 2.972l2.299 4.086h-3.631l-1.918-3.631zm-1.582-2.094h1.816c1.054 0 1.523-.498 1.523-1.274 0-.747-.454-1.201-1.523-1.201h-1.816v2.475zM11.008.08v6.355c0 2.664 1.948 4.334 5.315 4.334 3.353 0 5.301-1.67 5.301-4.32V.08h-3.339v6.105c0 1.216-.746 1.963-1.962 1.963-1.274 0-1.961-.747-1.961-1.963V.08h-3.354zm-1.059 0v2.591H6.648v7.805H3.31V2.671H.01V.08h9.939z" fill-rule="nonzero"/></svg>